<?xml version="1.0" encoding="UTF-8"?><svg id="Layer_1" xmlns="http://www.w3.org/2000/svg" viewBox="0 0 181.76 181.76"><defs><style>.cls-1{fill:#222221;}</style></defs><path class="cls-1" d="M116.47,44.95h-37.26s-18.42,0-18.42,0v36.78h-18.7v18.42h18.7v36.78h18.42v-36.8h37.26c15.22,0,27.59-12.38,27.59-27.59s-12.38-27.59-27.59-27.59ZM116.47,81.71h-37.26v-18.34h37.26c5.06,0,9.17,4.11,9.17,9.17s-4.11,9.17-9.17,9.17Z"/><path class="cls-1" d="M90.88,181.76C40.77,181.76,0,140.99,0,90.88S40.77,0,90.88,0s90.88,40.77,90.88,90.88-40.77,90.88-90.88,90.88ZM90.88,18.02c-40.17,0-72.86,32.68-72.86,72.86s32.68,72.86,72.86,72.86,72.86-32.68,72.86-72.86S131.05,18.02,90.88,18.02Z"/></svg>