<svg
  version="1.1"
  xmlns="http://www.w3.org/2000/svg"
  xmlns:xlink="http://www.w3.org/1999/xlink"
  width="64px"
  height="64px"
  viewBox="0 0 512 512"
  fill="none"
>
  <style type="text/css">
    .st0 {
      fill: black;
    }
    .text {
      font-family: 'Poppins', sans-serif;
      font-size: 200px;
      font-weight: bold;
      fill: black;
      dominant-baseline: middle;
      text-anchor: middle;
    }
  </style>
  <!-- Original Film Frame -->
  <g>
    <path
      class="st0"
      d="M438.281,0H73.719C37.297,0,7.75,29.531,7.75,65.969v380.063C7.75,482.469,37.297,512,73.719,512h364.563
      c36.422,0,65.969-29.531,65.969-65.969V65.969C504.25,29.531,474.703,0,438.281,0z M69.813,426.656H38.781v-31.031h31.031V426.656z
      M69.813,349.094H38.781v-31.031h31.031V349.094z M69.813,271.516H38.781v-31.031h31.031V271.516z M69.813,193.938H38.781v-31.031
      h31.031V193.938z M69.813,116.375H38.781V85.344h31.031V116.375z M411.156,449.938H100.844V62.063h310.313V449.938z
      M473.219,426.656h-31.031v-31.031h31.031V426.656z M473.219,349.094h-31.031v-31.031h31.031V349.094z M473.219,271.516h-31.031
      v-31.031h31.031V271.516z M473.219,193.938h-31.031v-31.031h31.031V193.938z M473.219,116.375h-31.031V85.344h31.031V116.375z"
    ></path>
  </g>

  <!-- Centered "P" Text -->
  <text
    x="50%"
    y="50%"
    class="text"
  >
    P
  </text>
</svg>
